<?xml version="1.0" encoding="UTF-8"?>
<svg id="Layer_1" data-name="Layer 1" xmlns="http://www.w3.org/2000/svg" xmlns:xlink="http://www.w3.org/1999/xlink" viewBox="0 0 279.11 312.94">
  <defs>
    <style>
      .cls-1, .cls-2, .cls-3 {
        stroke-width: 0px;
      }

      .cls-1, .cls-4 {
        fill: #882e53;
      }

      .cls-2 {
        fill: none;
      }

      .cls-4 {
        stroke-width: 9.2px;
      }

      .cls-4, .cls-5, .cls-6 {
        stroke: #882e53;
        stroke-miterlimit: 10;
      }

      .cls-5 {
        stroke-width: 2.97px;
      }

      .cls-5, .cls-6, .cls-3 {
        fill: #fff;
      }

      .cls-6 {
        stroke-width: 22.58px;
      }

      .cls-7 {
        clip-path: url(#clippath);
      }
    </style>
    <clipPath id="clippath">
      <circle class="cls-2" cx="139.56" cy="139.56" r="134.96"/>
    </clipPath>
  </defs>
  <circle class="cls-4" cx="139.56" cy="139.56" r="134.96"/>
  <g class="cls-7">
    <path class="cls-3" d="m265.43,275.17v36.37h-9.52v-1.19H25.59v1.19h-9.52v-36.37c0-40.25,18.52-76.25,47.48-99.94h.01c14.28-10.2,30.44-17.66,47.82-21.63,9.42-2.16,19.2-3.3,29.23-3.3s20.01,1.16,29.52,3.37c18.21,4.2,35.09,12.23,49.84,23.24,27.81,23.7,45.47,58.96,45.47,98.27Z"/>
    <g>
      <path class="cls-1" d="m267.61,275.94v37h-9.69v-37c0-40.43-19.82-76.3-50.27-98.42-1-.73-2.02-1.47-3.07-2.17-1.04-.71-2.08-1.39-3.15-2.06-8.7-5.55-18.17-10.02-28.18-13.21-.45-.15-.89-.28-1.35-.4v-.06h-1.26v-9.03c.16-.09.3-.16.47-.24l.27-.15c.17-.09.35-.18.52-.28v-.36c.15.04.3.09.44.13,2.3-1.22,4.55-2.58,6.74-4.09v6.21c3.53,1.22,7,2.57,10.39,4.08,11.61,5.16,22.33,11.95,31.88,20.08,28.29,24.11,46.26,59.98,46.26,99.98Z"/>
      <path class="cls-1" d="m110.86,150.58v9.03h-1.25v.06c-.46.13-.9.26-1.36.4-10.01,3.19-19.47,7.66-28.17,13.21-1.06.67-2.11,1.35-3.15,2.06-1.05.7-2.07,1.44-3.07,2.17-30.45,22.12-50.27,57.99-50.27,98.42v37h-9.69v-37c0-40.96,18.85-77.59,48.31-101.69h.01c9.03-7.39,19.05-13.59,29.82-18.38,3.4-1.51,6.87-2.86,10.4-4.08v-6.21c2.19,1.51,4.45,2.87,6.73,4.09.15-.04.3-.09.45-.13v.36c.17.1.35.19.52.28l.27.15c.16.09.31.16.47.24Z"/>
    </g>
    <path class="cls-6" d="m198.21,83.56c-.08-1.51-.21-2.99-.41-4.44-3.6-29.51-27.68-52.36-56.75-52.36s-53.15,22.85-56.79,52.31c-.18,1.48-.29,2.95-.37,4.45-.07,1.09-.11,2.19-.11,3.32,0,5.69.76,11.17,2.18,16.38.38,1.45.82,2.87,1.3,4.26,5.1,14.51,15.34,26.42,28.42,33.22.63.33,1.26.65,1.92.94.4.22.8.39,1.23.56.02,0,.02.03.02.03,1.05.47,2.09.89,3.16,1.3.79.3,1.56.57,2.37.81,5.29,1.68,10.87,2.6,16.67,2.6s11.38-.92,16.65-2.6c.79-.24,1.61-.53,2.37-.83,1.07-.38,2.12-.81,3.16-1.28.64-.28,1.25-.57,1.86-.86.03-.02.04-.02.06-.03.43-.22.84-.41,1.26-.64,13.07-6.82,23.33-18.72,28.38-33.23.49-1.39.94-2.81,1.34-4.27,1.4-5.2,2.15-10.68,2.15-16.35,0-1.11-.04-2.2-.08-3.27Z"/>
    <path class="cls-3" d="m197.23,78.23c-.11-1.01-.23-2.01-.38-3.01,0-.05-.02-.1-.02-.14-.35-2.24-.81-4.45-1.4-6.6-.38-1.45-.81-2.87-1.28-4.26-5.04-14.51-15.15-26.42-28.08-33.21-.62-.34-1.25-.65-1.89-.95-.39-.22-.79-.39-1.21-.56-.02,0-.02-.02-.02-.02-1.04-.47-2.06-.89-3.12-1.29-.79-.3-1.55-.57-2.35-.81-5.22-1.68-10.73-2.6-16.46-2.6s-11.24.92-16.45,2.6c-.78.25-1.59.53-2.34.83-1.06.38-2.1.81-3.12,1.28-.63.29-1.23.57-1.84.86-.02.02-.04.02-.06.03-.42.22-.84.41-1.25.64-12.91,6.81-23.05,18.72-28.03,33.23-.49,1.39-.92,2.81-1.33,4.27-.84,3.15-1.43,6.39-1.78,9.72h112.39Z"/>
    <path class="cls-3" d="m198.39,81.52c-.08-1.51-.21-2.99-.41-4.44-3.6-29.51-27.68-52.36-56.75-52.36s-53.15,22.85-56.79,52.31c-.18,1.48-.29,2.95-.37,4.45-.07,1.09-.11,2.19-.11,3.32,0,5.69.76,11.17,2.18,16.38.38,1.45.82,2.87,1.3,4.26,5.1,14.51,15.34,26.42,28.42,33.22.63.33,1.26.65,1.92.94.4.22.8.39,1.23.56.02,0,.02.03.02.03,1.05.47,2.09.89,3.16,1.3.79.3,1.56.57,2.37.81,5.29,1.68,10.87,2.6,16.67,2.6s11.38-.92,16.65-2.6c.79-.24,1.61-.53,2.37-.83,1.07-.38,2.12-.81,3.16-1.28.64-.28,1.25-.57,1.86-.86.03-.02.04-.02.06-.03.43-.22.84-.41,1.26-.64,13.07-6.82,23.33-18.72,28.38-33.23.49-1.39.94-2.81,1.34-4.27,1.4-5.2,2.15-10.68,2.15-16.35,0-1.11-.04-2.2-.08-3.27Z"/>
    <path class="cls-5" d="m114.26,42.69s11.43,13.74,45.99,8.4c0,0-23.99-1.78-24.28-9.67,0,0,9.71,15.53,74.84,9.42,0,0-24.97-6.42-37.07-16.81-6.88-5.9-15.68-9.76-25.21-10.37-12.43-.8-29.14,1.63-45.98,14.72"/>
  </g>
</svg>