<?xml version="1.0" encoding="UTF-8"?>
<svg id="Layer_1" data-name="Layer 1" xmlns="http://www.w3.org/2000/svg" xmlns:xlink="http://www.w3.org/1999/xlink" viewBox="0 0 277.53 277.53">
  <defs>
    <style>
      .cls-1 {
        stroke-width: 2.34px;
      }

      .cls-1, .cls-2, .cls-3, .cls-4 {
        stroke: #882e53;
        stroke-miterlimit: 10;
      }

      .cls-1, .cls-5, .cls-4 {
        fill: #fff;
      }

      .cls-6, .cls-2, .cls-3 {
        fill: #882e53;
      }

      .cls-6, .cls-7, .cls-5 {
        stroke-width: 0px;
      }

      .cls-2 {
        stroke-width: 9.15px;
      }

      .cls-7 {
        fill: none;
      }

      .cls-3 {
        stroke-width: 9.09px;
      }

      .cls-4 {
        stroke-width: 22.45px;
      }

      .cls-8 {
        clip-path: url(#clippath);
      }
    </style>
    <clipPath id="clippath">
      <circle class="cls-7" cx="138.76" cy="138.76" r="134.19"/>
    </clipPath>
  </defs>
  <circle class="cls-2" cx="138.76" cy="138.76" r="134.19"/>
  <g class="cls-8">
    <path class="cls-5" d="m263.93,273.61v36.16h-9.47v-1.18H25.44v1.18h-9.47v-36.16c0-40.03,18.42-75.82,47.21-99.37h.01c14.2-10.14,30.27-17.55,47.55-21.5,9.36-2.15,19.09-3.28,29.06-3.28s19.89,1.15,29.35,3.35c18.11,4.18,34.89,12.16,49.56,23.11,27.65,23.56,45.21,58.62,45.21,97.71Z"/>
    <g>
      <path class="cls-6" d="m266.09,274.37v36.79h-9.63v-36.79c0-40.2-19.71-75.87-49.99-97.86-.99-.73-2.01-1.46-3.06-2.16-1.04-.71-2.07-1.39-3.13-2.05-8.65-5.52-18.06-9.96-28.02-13.13-.44-.15-.89-.27-1.34-.4v-.06h-1.25v-8.98c.16-.08.3-.16.47-.24l.26-.15c.17-.08.35-.18.52-.27v-.36c.15.04.3.08.43.13,2.28-1.22,4.53-2.57,6.7-4.07v6.18c3.51,1.22,6.96,2.56,10.33,4.06,11.55,5.13,22.21,11.89,31.7,19.97,28.13,23.97,46,59.64,46,99.42Z"/>
      <path class="cls-6" d="m110.23,149.73v8.98h-1.25v.06c-.45.13-.9.25-1.35.4-9.95,3.17-19.36,7.61-28.01,13.13-1.06.67-2.09,1.34-3.13,2.05-1.05.7-2.06,1.43-3.06,2.16-30.28,22-49.99,57.67-49.99,97.86v36.79h-9.63v-36.79c0-40.72,18.74-77.14,48.03-101.11h.01c8.98-7.35,18.94-13.51,29.65-18.27,3.38-1.5,6.83-2.84,10.34-4.06v-6.18c2.18,1.5,4.42,2.86,6.69,4.07.15-.04.3-.08.44-.13v.36c.17.1.35.19.52.27l.26.15c.16.08.31.16.47.24Z"/>
    </g>
    <path class="cls-4" d="m197.08,83.09c-.08-1.5-.21-2.97-.41-4.42-3.58-29.34-27.52-52.07-56.42-52.07s-52.85,22.72-56.47,52.01c-.17,1.47-.29,2.94-.37,4.42-.07,1.08-.11,2.18-.11,3.3,0,5.65.76,11.11,2.17,16.29.38,1.44.81,2.85,1.29,4.23,5.07,14.43,15.25,26.27,28.26,33.03.62.33,1.26.65,1.9.94.4.22.8.39,1.22.56.02,0,.02.02.02.02,1.05.47,2.08.89,3.14,1.29.79.3,1.55.57,2.36.81,5.26,1.67,10.81,2.59,16.57,2.59s11.32-.91,16.55-2.59c.79-.24,1.6-.52,2.36-.82,1.06-.38,2.11-.81,3.14-1.27.63-.28,1.24-.57,1.85-.86.02-.02.04-.02.06-.03.42-.22.84-.41,1.26-.63,13-6.78,23.2-18.62,28.22-33.04.49-1.38.93-2.79,1.33-4.25,1.4-5.17,2.14-10.62,2.14-16.26,0-1.11-.04-2.19-.07-3.25Z"/>
    <path class="cls-5" d="m196.12,77.79c-.11-1-.23-2-.38-2.99,0-.05-.02-.1-.02-.14-.35-2.23-.81-4.42-1.39-6.57-.38-1.44-.81-2.85-1.27-4.23-5.01-14.43-15.07-26.27-27.92-33.02-.61-.33-1.24-.65-1.88-.94-.39-.21-.78-.39-1.2-.56-.02,0-.02-.02-.02-.02-1.04-.47-2.05-.89-3.1-1.29-.78-.3-1.54-.56-2.34-.81-5.19-1.67-10.67-2.58-16.37-2.58s-11.18.91-16.35,2.58c-.78.25-1.58.52-2.33.83-1.05.38-2.09.8-3.11,1.27-.63.29-1.22.56-1.83.86-.02.02-.04.02-.05.03-.42.21-.83.4-1.24.64-12.84,6.77-22.92,18.61-27.87,33.04-.49,1.38-.92,2.79-1.32,4.25-.83,3.13-1.43,6.36-1.77,9.67h111.75Z"/>
    <path class="cls-5" d="m197.27,81.06c-.08-1.5-.21-2.97-.41-4.42-3.58-29.34-27.52-52.07-56.42-52.07s-52.85,22.72-56.47,52.01c-.17,1.47-.29,2.94-.37,4.42-.07,1.08-.11,2.18-.11,3.3,0,5.65.76,11.11,2.17,16.29.38,1.44.81,2.85,1.29,4.23,5.07,14.43,15.25,26.27,28.26,33.03.62.33,1.26.65,1.9.94.4.22.8.39,1.22.56.02,0,.02.02.02.02,1.05.47,2.08.89,3.14,1.29.79.3,1.55.57,2.36.81,5.26,1.67,10.81,2.59,16.57,2.59s11.32-.91,16.55-2.59c.79-.24,1.6-.52,2.36-.82,1.06-.38,2.11-.81,3.14-1.27.63-.28,1.24-.57,1.85-.86.02-.02.04-.02.06-.03.42-.22.84-.41,1.26-.63,13-6.78,23.2-18.62,28.22-33.04.49-1.38.93-2.79,1.33-4.25,1.4-5.17,2.14-10.62,2.14-16.26,0-1.11-.04-2.19-.07-3.25Z"/>
    <path class="cls-3" d="m189.47,61.92h-1.05c-10.6-10.52-27.94-17.37-47.52-17.37s-36.81,6.81-47.42,17.27h0c16.26-24.82,70.68-29.98,96,.1Z"/>
    <path class="cls-1" d="m208.08,171.59c.22-32.77.51-27.76.25-60.53-.51-62.34-35.66-98.08-78.75-89.3-32.09,6.55-55.81,39.29-56.28,88.25-.3,31.1-.04,28.04.17,59.15.1,13.73-9.73,11.94-17.49,22.25,39.08,37.87,131.56,40.28,171.32,2.36-6.43-9.03-19.3-10.44-19.23-22.19Zm-15.84-45.57c-1.24,27.17-23.98,45.18-51.32,45.23-27.39.05-50.09-17.84-51.63-44.94-.38-6.63-.87-12.66-.87-19.32.01-.58-.01-.25.02-.99.84-9.91.28-19.81,2.6-29.36,6.12-25.22,29.64-40.49,56.17-37.7,24.53,2.58,43.95,22.95,45.04,47.96.56,13.03.58,26.12,0,39.14Z"/>
  </g>
</svg>