<?xml version="1.0" encoding="UTF-8"?>
<svg id="Layer_1" data-name="Layer 1" xmlns="http://www.w3.org/2000/svg" xmlns:xlink="http://www.w3.org/1999/xlink" viewBox="0 0 278.5 278.5">
  <defs>
    <style>
      .cls-1, .cls-2, .cls-3 {
        fill: #882e53;
      }

      .cls-1, .cls-4, .cls-5 {
        stroke-width: 0px;
      }

      .cls-2 {
        stroke-width: 9.18px;
      }

      .cls-2, .cls-3, .cls-6, .cls-7 {
        stroke-miterlimit: 10;
      }

      .cls-2, .cls-6, .cls-7 {
        stroke: #882e53;
      }

      .cls-4 {
        fill: none;
      }

      .cls-5, .cls-6, .cls-7 {
        fill: #fff;
      }

      .cls-3 {
        stroke: #fff;
        stroke-width: .85px;
      }

      .cls-6 {
        stroke-width: 2.39px;
      }

      .cls-8 {
        clip-path: url(#clippath);
      }

      .cls-7 {
        stroke-width: 22.53px;
      }
    </style>
    <clipPath id="clippath">
      <circle class="cls-4" cx="139.25" cy="139.25" r="134.66"/>
    </clipPath>
  </defs>
  <circle class="cls-2" cx="139.25" cy="139.25" r="134.66"/>
  <g class="cls-8">
    <path class="cls-5" d="m264.85,274.56v36.29h-9.5v-1.19H25.53v1.19h-9.5v-36.29c0-40.17,18.48-76.09,47.37-99.72h.01c14.25-10.18,30.37-17.62,47.72-21.58,9.4-2.16,19.16-3.3,29.16-3.3s19.96,1.16,29.45,3.36c18.17,4.19,35.01,12.2,49.73,23.19,27.74,23.64,45.37,58.82,45.37,98.05Z"/>
    <g>
      <path class="cls-1" d="m267.02,275.33v36.92h-9.67v-36.92c0-40.34-19.78-76.13-50.16-98.2-1-.73-2.02-1.46-3.07-2.16-1.04-.71-2.08-1.39-3.14-2.06-8.68-5.54-18.13-10-28.12-13.18-.45-.15-.89-.28-1.35-.4v-.06h-1.25v-9.01c.16-.08.3-.16.47-.24l.27-.15c.17-.08.35-.18.52-.28v-.36c.15.04.3.08.43.13,2.29-1.22,4.54-2.58,6.73-4.09v6.2c3.52,1.22,6.98,2.57,10.37,4.08,11.59,5.15,22.29,11.93,31.81,20.04,28.23,24.06,46.16,59.85,46.16,99.76Z"/>
      <path class="cls-1" d="m110.62,150.25v9.01h-1.25v.06c-.46.13-.9.25-1.36.4-9.99,3.18-19.43,7.64-28.11,13.18-1.06.67-2.1,1.35-3.14,2.06-1.05.7-2.07,1.43-3.07,2.16-30.38,22.07-50.16,57.87-50.16,98.2v36.92h-9.67v-36.92c0-40.87,18.8-77.41,48.2-101.46h.01c9.01-7.38,19.01-13.56,29.76-18.34,3.4-1.51,6.86-2.85,10.38-4.08v-6.2c2.19,1.51,4.44,2.87,6.72,4.09.15-.04.3-.08.45-.13v.36c.17.1.35.19.52.28l.27.15c.16.08.31.16.47.24Z"/>
    </g>
    <path class="cls-7" d="m197.77,83.38c-.08-1.51-.21-2.98-.41-4.43-3.59-29.45-27.62-52.25-56.62-52.25s-53.03,22.8-56.66,52.19c-.18,1.48-.29,2.95-.37,4.44-.07,1.08-.11,2.19-.11,3.31,0,5.67.76,11.15,2.18,16.35.38,1.44.82,2.86,1.29,4.25,5.09,14.48,15.3,26.36,28.36,33.14.63.33,1.26.65,1.91.94.4.22.8.39,1.23.56.02,0,.02.03.02.03,1.05.47,2.09.89,3.15,1.29.79.3,1.56.57,2.37.81,5.27,1.68,10.85,2.59,16.63,2.59s11.36-.92,16.61-2.59c.79-.24,1.6-.53,2.37-.83,1.07-.38,2.12-.81,3.15-1.28.63-.28,1.24-.57,1.85-.86.03-.02.04-.02.06-.03.43-.22.84-.41,1.26-.63,13.04-6.8,23.28-18.68,28.32-33.16.49-1.39.93-2.8,1.34-4.26,1.4-5.19,2.14-10.66,2.14-16.31,0-1.11-.04-2.19-.08-3.26Z"/>
    <path class="cls-5" d="m197.77,83.38c-.08-1.51-.21-2.98-.41-4.43-3.59-29.45-27.62-52.25-56.62-52.25s-53.03,22.8-56.66,52.19c-.18,1.48-.29,2.95-.37,4.44-.07,1.08-.11,2.19-.11,3.31,0,5.67.76,11.15,2.18,16.35.38,1.44.82,2.86,1.29,4.25,5.09,14.48,15.3,26.36,28.36,33.14.63.33,1.26.65,1.91.94.4.22.8.39,1.23.56.02,0,.02.03.02.03,1.05.47,2.09.89,3.15,1.29.79.3,1.56.57,2.37.81,5.27,1.68,10.85,2.59,16.63,2.59s11.36-.92,16.61-2.59c.79-.24,1.6-.53,2.37-.83,1.07-.38,2.12-.81,3.15-1.28.63-.28,1.24-.57,1.85-.86.03-.02.04-.02.06-.03.43-.22.84-.41,1.26-.63,13.04-6.8,23.28-18.68,28.32-33.16.49-1.39.93-2.8,1.34-4.26,1.4-5.19,2.14-10.66,2.14-16.31,0-1.11-.04-2.19-.08-3.26Z"/>
    <path class="cls-6" d="m84.25,56.6l-28.02,137.05,43.53,40.39.98-150.51c.01-2.29,1.37-4.36,3.45-5.31,10.18-4.63,41.34-16.27,70.46-.94,1.93,1.02,3.17,3,3.19,5.18l.98,149.9,45.03-38.16-29.52-137.88s-50.29-72.7-110.09.28Z"/>
    <rect class="cls-3" x="82.43" y="49.21" width="115.57" height="8.69" rx="4.34" ry="4.34"/>
    <rect class="cls-3" x="77.69" y="57.82" width="125.04" height="8.69" rx="4.34" ry="4.34"/>
  </g>
</svg>