<svg width="24" height="27" viewBox="0 0 24 27" fill="none" xmlns="http://www.w3.org/2000/svg">
<path d="M23.1681 9.46656C23.1681 8.5199 22.5216 7.65163 21.5042 7.33658C22.1507 6.62659 22.2443 5.60156 21.6897 4.73328C21.135 3.86501 20.0258 3.47158 19.0084 3.54997C19.1003 2.68169 18.6393 1.73504 17.6219 1.26171C16.6045 0.788385 15.4953 0.866768 14.5715 1.41998C14.2023 0.553187 13.185 0 12.0757 0C10.9665 0 9.94911 0.55171 9.57996 1.41998C8.65619 0.868272 7.54696 0.78985 6.52957 1.26319C5.51218 1.73654 5.05119 2.68318 5.14303 3.55145C4.12564 3.47305 3.01641 3.8665 2.4618 4.73476C1.90718 5.60304 1.99902 6.54969 2.64725 7.33806C1.72348 7.73301 0.983398 8.52138 0.983398 9.46804C0.983398 10.4147 1.62986 11.283 2.64725 11.598C2.00079 12.308 1.90717 13.333 2.4618 14.2013C3.01641 15.0696 4.12564 15.463 5.14303 15.3846C5.05117 16.2529 5.5122 17.1996 6.52957 17.6729C6.52957 17.6729 6.62143 17.6729 6.62143 17.7513L3.84835 25.3245L7.36151 23.7462L9.21082 26.7445L12.0757 18.9346H12.1676H12.2595L15.1244 26.8229L16.9737 23.8246L20.4869 25.4029L17.6219 17.7513C17.6219 17.7513 17.7138 17.7513 17.7138 17.6729C18.7312 17.1996 19.1922 16.2529 19.1003 15.3846C20.1177 15.463 21.227 15.0696 21.7816 14.2013C22.3362 13.333 22.2443 12.3864 21.5961 11.598C22.5216 11.2815 23.1681 10.4132 23.1681 9.46656L23.1681 9.46656ZM12.0757 14.9897C8.47074 14.9897 5.60582 12.5447 5.60582 9.46807C5.60582 6.39144 8.47074 3.94642 12.0757 3.94642C15.6807 3.94642 18.5457 6.39144 18.5457 9.46807C18.5457 12.5432 15.6807 14.9897 12.0757 14.9897V14.9897Z" fill="white"/>
</svg>
