<svg width="23" height="23" viewBox="0 0 23 23" fill="none" xmlns="http://www.w3.org/2000/svg">
<path d="M11.3317 5.37695C8.21484 5.37695 5.66504 7.79664 5.66504 10.7545C5.66504 11.9643 6.09001 13.0393 6.79783 13.9139C6.79783 13.9139 7.01032 14.1824 7.0807 14.2504C7.71815 14.9902 9.27591 17.0734 9.27591 18.8214H13.5256C13.5256 17.0734 15.0834 14.9902 15.7208 14.2504C15.7912 14.1836 16.0037 13.9139 16.0037 13.9139C16.7115 13.0406 17.1365 11.8975 17.1365 10.7545C16.9984 7.79664 14.4486 5.37695 11.3317 5.37695H11.3317Z" fill="white"/>
<path d="M9.20703 20.1641H13.4567V22.8522H9.20703V20.1641Z" fill="white"/>
<path d="M0 10.082H4.24968V11.4267H0V10.082Z" fill="white"/>
<path d="M18.4141 10.082H22.6637V11.4267H18.4141V10.082Z" fill="white"/>
<path d="M18.853 2.67383L19.8543 3.62406L16.849 6.476L15.8477 5.52577L18.853 2.67383Z" fill="white"/>
<path d="M10.624 0H12.041V4.03281H10.624V0Z" fill="white"/>
<path d="M3.81969 2.66797L6.82499 5.51991L5.82366 6.47014L2.81836 3.6182L3.81969 2.66797Z" fill="white"/>
</svg>
