<svg width="19" height="21" viewBox="0 0 19 21" fill="none" xmlns="http://www.w3.org/2000/svg">
<path d="M18.2053 1.09518L17.7795 4.52503C16.6725 4.43106 15.8636 4.68165 15.3527 5.27678C14.8418 5.87191 14.5295 6.67065 14.416 7.67298C14.3025 8.67531 14.2741 9.75595 14.3308 10.9149H18.2053V20.8286H10.9247V9.03552C10.9247 6.15382 11.5776 3.99254 12.8832 2.55169C14.2173 1.11084 15.9913 0.625335 18.2053 1.09518ZM7.3909 1.09518L6.96514 4.52503C5.85815 4.43106 5.0492 4.68165 4.53829 5.27678C4.02737 5.87191 3.71515 6.67065 3.60161 7.67298C3.48807 8.67531 3.45969 9.75595 3.51646 10.9149H7.3909V20.8286H0.110352V9.03552C0.110352 6.15382 0.763189 3.99254 2.06886 2.55169C3.40292 1.11084 5.17693 0.625335 7.3909 1.09518Z" fill="white"/>
</svg>
